<mxfile host="app.diagrams.net" modified="2022-01-25T17:02:35.486Z" agent="5.0 (Windows NT 10.0; Win64; x64) AppleWebKit/537.36 (KHTML, like Gecko) Chrome/97.0.4692.99 Safari/537.36" etag="HxA0x-6ckTeHctuYCuNR" version="16.4.6" type="github">
  <diagram name="Page-1" id="42789a77-a242-8287-6e28-9cd8cfd52e62">
    <mxGraphModel dx="1713" dy="1625" grid="1" gridSize="10" guides="1" tooltips="1" connect="1" arrows="1" fold="1" page="1" pageScale="1" pageWidth="1100" pageHeight="850" background="none" math="0" shadow="0">
      <root>
        <mxCell id="0" />
        <mxCell id="1" parent="0" />
        <mxCell id="4u6YXKjej-e5rv4cVSY1-3" value="arcade" style="ellipse;whiteSpace=wrap;html=1;" vertex="1" parent="1">
          <mxGeometry x="160" y="410" width="80" height="60" as="geometry" />
        </mxCell>
        <mxCell id="4u6YXKjej-e5rv4cVSY1-4" value="grocery store" style="ellipse;whiteSpace=wrap;html=1;" vertex="1" parent="1">
          <mxGeometry x="1000" y="90" width="80" height="60" as="geometry" />
        </mxCell>
        <mxCell id="4u6YXKjej-e5rv4cVSY1-5" value="workshop" style="ellipse;whiteSpace=wrap;html=1;" vertex="1" parent="1">
          <mxGeometry x="330" y="90" width="80" height="60" as="geometry" />
        </mxCell>
        <mxCell id="4u6YXKjej-e5rv4cVSY1-6" value="restaurant" style="ellipse;whiteSpace=wrap;html=1;" vertex="1" parent="1">
          <mxGeometry x="1000" y="170" width="80" height="60" as="geometry" />
        </mxCell>
        <mxCell id="4u6YXKjej-e5rv4cVSY1-7" value="bike parking" style="ellipse;whiteSpace=wrap;html=1;" vertex="1" parent="1">
          <mxGeometry x="960" y="480" width="80" height="60" as="geometry" />
        </mxCell>
        <mxCell id="4u6YXKjej-e5rv4cVSY1-8" value="Assisted living" style="ellipse;whiteSpace=wrap;html=1;" vertex="1" parent="1">
          <mxGeometry x="490" y="470" width="80" height="60" as="geometry" />
        </mxCell>
        <mxCell id="4u6YXKjej-e5rv4cVSY1-9" value="car parking" style="ellipse;whiteSpace=wrap;html=1;" vertex="1" parent="1">
          <mxGeometry x="820" y="480" width="80" height="60" as="geometry" />
        </mxCell>
        <mxCell id="4u6YXKjej-e5rv4cVSY1-10" value="fab labs" style="ellipse;whiteSpace=wrap;html=1;" vertex="1" parent="1">
          <mxGeometry x="230" y="150" width="80" height="60" as="geometry" />
        </mxCell>
        <mxCell id="4u6YXKjej-e5rv4cVSY1-11" value="startups" style="ellipse;whiteSpace=wrap;html=1;" vertex="1" parent="1">
          <mxGeometry x="860" y="100" width="80" height="60" as="geometry" />
        </mxCell>
        <mxCell id="4u6YXKjej-e5rv4cVSY1-14" value="cinematheque" style="ellipse;whiteSpace=wrap;html=1;" vertex="1" parent="1">
          <mxGeometry x="150" y="320" width="80" height="60" as="geometry" />
        </mxCell>
        <mxCell id="4u6YXKjej-e5rv4cVSY1-16" value="drugstore" style="ellipse;whiteSpace=wrap;html=1;" vertex="1" parent="1">
          <mxGeometry x="620" y="450" width="80" height="60" as="geometry" />
        </mxCell>
        <mxCell id="4u6YXKjej-e5rv4cVSY1-17" value="co cooking&lt;br&gt;starter" style="ellipse;whiteSpace=wrap;html=1;" vertex="1" parent="1">
          <mxGeometry x="620" y="60" width="80" height="60" as="geometry" />
        </mxCell>
        <mxCell id="4u6YXKjej-e5rv4cVSY1-18" value="Student housing" style="ellipse;whiteSpace=wrap;html=1;" vertex="1" parent="1">
          <mxGeometry x="490" y="-80" width="80" height="60" as="geometry" />
        </mxCell>
        <mxCell id="4u6YXKjej-e5rv4cVSY1-19" value="starter housing" style="ellipse;whiteSpace=wrap;html=1;" vertex="1" parent="1">
          <mxGeometry x="620" y="-90" width="80" height="60" as="geometry" />
        </mxCell>
        <mxCell id="4u6YXKjej-e5rv4cVSY1-20" value="gym" style="ellipse;whiteSpace=wrap;html=1;" vertex="1" parent="1">
          <mxGeometry x="930" y="280" width="80" height="60" as="geometry" />
        </mxCell>
        <mxCell id="4u6YXKjej-e5rv4cVSY1-21" value="communal&lt;br&gt;garden" style="ellipse;whiteSpace=wrap;html=1;" vertex="1" parent="1">
          <mxGeometry x="310" y="460" width="80" height="60" as="geometry" />
        </mxCell>
        <mxCell id="4u6YXKjej-e5rv4cVSY1-23" value="shops" style="ellipse;whiteSpace=wrap;html=1;" vertex="1" parent="1">
          <mxGeometry x="1000" y="20" width="80" height="60" as="geometry" />
        </mxCell>
        <mxCell id="4u6YXKjej-e5rv4cVSY1-24" value="Community&amp;nbsp;&lt;br&gt;Center" style="ellipse;whiteSpace=wrap;html=1;" vertex="1" parent="1">
          <mxGeometry x="330" y="230" width="120" height="90" as="geometry" />
        </mxCell>
        <mxCell id="4u6YXKjej-e5rv4cVSY1-27" value="Lobby" style="ellipse;whiteSpace=wrap;html=1;" vertex="1" parent="1">
          <mxGeometry x="780" y="270" width="120" height="90" as="geometry" />
        </mxCell>
        <mxCell id="4u6YXKjej-e5rv4cVSY1-29" value="co cooking&lt;br&gt;student" style="ellipse;whiteSpace=wrap;html=1;" vertex="1" parent="1">
          <mxGeometry x="500" y="50" width="80" height="60" as="geometry" />
        </mxCell>
        <mxCell id="4u6YXKjej-e5rv4cVSY1-57" value="" style="endArrow=none;html=1;rounded=0;entryX=0.5;entryY=1;entryDx=0;entryDy=0;exitX=0.5;exitY=0;exitDx=0;exitDy=0;" edge="1" parent="1" source="4u6YXKjej-e5rv4cVSY1-9" target="4u6YXKjej-e5rv4cVSY1-27">
          <mxGeometry width="50" height="50" relative="1" as="geometry">
            <mxPoint x="590" y="280" as="sourcePoint" />
            <mxPoint x="640" y="230" as="targetPoint" />
          </mxGeometry>
        </mxCell>
        <mxCell id="4u6YXKjej-e5rv4cVSY1-58" value="" style="endArrow=none;html=1;rounded=0;entryX=0.5;entryY=1;entryDx=0;entryDy=0;exitX=0;exitY=0;exitDx=0;exitDy=0;" edge="1" parent="1" source="4u6YXKjej-e5rv4cVSY1-7" target="4u6YXKjej-e5rv4cVSY1-27">
          <mxGeometry width="50" height="50" relative="1" as="geometry">
            <mxPoint x="590" y="280" as="sourcePoint" />
            <mxPoint x="640" y="230" as="targetPoint" />
          </mxGeometry>
        </mxCell>
        <mxCell id="4u6YXKjej-e5rv4cVSY1-59" value="" style="endArrow=none;html=1;rounded=0;entryX=0;entryY=0.5;entryDx=0;entryDy=0;exitX=1;exitY=0.5;exitDx=0;exitDy=0;" edge="1" parent="1" source="4u6YXKjej-e5rv4cVSY1-9" target="4u6YXKjej-e5rv4cVSY1-7">
          <mxGeometry width="50" height="50" relative="1" as="geometry">
            <mxPoint x="590" y="280" as="sourcePoint" />
            <mxPoint x="640" y="230" as="targetPoint" />
          </mxGeometry>
        </mxCell>
        <mxCell id="4u6YXKjej-e5rv4cVSY1-60" value="" style="endArrow=none;html=1;rounded=0;entryX=0.5;entryY=1;entryDx=0;entryDy=0;exitX=0.5;exitY=0;exitDx=0;exitDy=0;" edge="1" parent="1" source="4u6YXKjej-e5rv4cVSY1-61" target="4u6YXKjej-e5rv4cVSY1-29">
          <mxGeometry width="50" height="50" relative="1" as="geometry">
            <mxPoint x="700" y="310" as="sourcePoint" />
            <mxPoint x="640" y="230" as="targetPoint" />
          </mxGeometry>
        </mxCell>
        <mxCell id="4u6YXKjej-e5rv4cVSY1-62" value="" style="endArrow=none;html=1;rounded=0;exitX=1;exitY=0;exitDx=0;exitDy=0;entryX=0.271;entryY=0.988;entryDx=0;entryDy=0;entryPerimeter=0;" edge="1" parent="1" source="4u6YXKjej-e5rv4cVSY1-24" target="4u6YXKjej-e5rv4cVSY1-29">
          <mxGeometry width="50" height="50" relative="1" as="geometry">
            <mxPoint x="590" y="280" as="sourcePoint" />
            <mxPoint x="640" y="190" as="targetPoint" />
          </mxGeometry>
        </mxCell>
        <mxCell id="4u6YXKjej-e5rv4cVSY1-63" value="" style="endArrow=none;html=1;rounded=0;exitX=1;exitY=0.5;exitDx=0;exitDy=0;entryX=0;entryY=0.5;entryDx=0;entryDy=0;" edge="1" parent="1" source="4u6YXKjej-e5rv4cVSY1-24" target="4u6YXKjej-e5rv4cVSY1-8">
          <mxGeometry width="50" height="50" relative="1" as="geometry">
            <mxPoint x="590" y="280" as="sourcePoint" />
            <mxPoint x="640" y="230" as="targetPoint" />
          </mxGeometry>
        </mxCell>
        <mxCell id="4u6YXKjej-e5rv4cVSY1-64" value="" style="endArrow=none;html=1;rounded=0;entryX=0.704;entryY=0.061;entryDx=0;entryDy=0;exitX=0.5;exitY=1;exitDx=0;exitDy=0;entryPerimeter=0;" edge="1" parent="1" source="4u6YXKjej-e5rv4cVSY1-61" target="4u6YXKjej-e5rv4cVSY1-8">
          <mxGeometry width="50" height="50" relative="1" as="geometry">
            <mxPoint x="590" y="280" as="sourcePoint" />
            <mxPoint x="640" y="230" as="targetPoint" />
          </mxGeometry>
        </mxCell>
        <mxCell id="4u6YXKjej-e5rv4cVSY1-65" value="" style="endArrow=none;html=1;rounded=0;entryX=0.603;entryY=1.016;entryDx=0;entryDy=0;entryPerimeter=0;exitX=1;exitY=0;exitDx=0;exitDy=0;" edge="1" parent="1" source="4u6YXKjej-e5rv4cVSY1-24" target="4u6YXKjej-e5rv4cVSY1-17">
          <mxGeometry width="50" height="50" relative="1" as="geometry">
            <mxPoint x="590" y="280" as="sourcePoint" />
            <mxPoint x="640" y="230" as="targetPoint" />
          </mxGeometry>
        </mxCell>
        <mxCell id="4u6YXKjej-e5rv4cVSY1-66" value="" style="endArrow=none;html=1;rounded=0;entryX=0.5;entryY=1;entryDx=0;entryDy=0;exitX=0.5;exitY=0;exitDx=0;exitDy=0;startArrow=none;" edge="1" parent="1" source="4u6YXKjej-e5rv4cVSY1-12" target="4u6YXKjej-e5rv4cVSY1-17">
          <mxGeometry width="50" height="50" relative="1" as="geometry">
            <mxPoint x="590" y="280" as="sourcePoint" />
            <mxPoint x="640" y="230" as="targetPoint" />
          </mxGeometry>
        </mxCell>
        <mxCell id="4u6YXKjej-e5rv4cVSY1-67" value="" style="endArrow=none;html=1;rounded=0;entryX=0.5;entryY=1;entryDx=0;entryDy=0;exitX=0.5;exitY=0;exitDx=0;exitDy=0;" edge="1" parent="1" source="4u6YXKjej-e5rv4cVSY1-29" target="4u6YXKjej-e5rv4cVSY1-18">
          <mxGeometry width="50" height="50" relative="1" as="geometry">
            <mxPoint x="590" y="280" as="sourcePoint" />
            <mxPoint x="640" y="230" as="targetPoint" />
          </mxGeometry>
        </mxCell>
        <mxCell id="4u6YXKjej-e5rv4cVSY1-68" value="" style="endArrow=none;html=1;rounded=0;entryX=0.5;entryY=1;entryDx=0;entryDy=0;exitX=0.5;exitY=0;exitDx=0;exitDy=0;" edge="1" parent="1" source="4u6YXKjej-e5rv4cVSY1-17" target="4u6YXKjej-e5rv4cVSY1-19">
          <mxGeometry width="50" height="50" relative="1" as="geometry">
            <mxPoint x="590" y="280" as="sourcePoint" />
            <mxPoint x="640" y="230" as="targetPoint" />
          </mxGeometry>
        </mxCell>
        <mxCell id="4u6YXKjej-e5rv4cVSY1-72" value="" style="endArrow=none;html=1;rounded=0;entryX=0.5;entryY=1;entryDx=0;entryDy=0;exitX=0.235;exitY=0.088;exitDx=0;exitDy=0;exitPerimeter=0;" edge="1" parent="1" source="4u6YXKjej-e5rv4cVSY1-24" target="4u6YXKjej-e5rv4cVSY1-10">
          <mxGeometry width="50" height="50" relative="1" as="geometry">
            <mxPoint x="710" y="290" as="sourcePoint" />
            <mxPoint x="760" y="240" as="targetPoint" />
          </mxGeometry>
        </mxCell>
        <mxCell id="4u6YXKjej-e5rv4cVSY1-73" value="" style="endArrow=none;html=1;rounded=0;entryX=1;entryY=1;entryDx=0;entryDy=0;exitX=0.025;exitY=0.333;exitDx=0;exitDy=0;exitPerimeter=0;" edge="1" parent="1" source="4u6YXKjej-e5rv4cVSY1-24" target="4u6YXKjej-e5rv4cVSY1-14">
          <mxGeometry width="50" height="50" relative="1" as="geometry">
            <mxPoint x="610" y="440" as="sourcePoint" />
            <mxPoint x="660" y="390" as="targetPoint" />
          </mxGeometry>
        </mxCell>
        <mxCell id="4u6YXKjej-e5rv4cVSY1-74" value="" style="endArrow=none;html=1;rounded=0;entryX=1;entryY=0.5;entryDx=0;entryDy=0;exitX=0.008;exitY=0.57;exitDx=0;exitDy=0;exitPerimeter=0;" edge="1" parent="1" source="4u6YXKjej-e5rv4cVSY1-24" target="4u6YXKjej-e5rv4cVSY1-3">
          <mxGeometry width="50" height="50" relative="1" as="geometry">
            <mxPoint x="610" y="440" as="sourcePoint" />
            <mxPoint x="660" y="390" as="targetPoint" />
          </mxGeometry>
        </mxCell>
        <mxCell id="4u6YXKjej-e5rv4cVSY1-75" value="" style="endArrow=none;html=1;rounded=0;exitX=0.995;exitY=0.405;exitDx=0;exitDy=0;entryX=0;entryY=0.5;entryDx=0;entryDy=0;startArrow=none;exitPerimeter=0;" edge="1" parent="1" source="4u6YXKjej-e5rv4cVSY1-24" target="4u6YXKjej-e5rv4cVSY1-12">
          <mxGeometry width="50" height="50" relative="1" as="geometry">
            <mxPoint x="520" y="330" as="sourcePoint" />
            <mxPoint x="580" y="290" as="targetPoint" />
          </mxGeometry>
        </mxCell>
        <mxCell id="4u6YXKjej-e5rv4cVSY1-76" value="" style="endArrow=none;html=1;rounded=0;exitX=0.5;exitY=0;exitDx=0;exitDy=0;entryX=0.419;entryY=1.022;entryDx=0;entryDy=0;entryPerimeter=0;" edge="1" parent="1" source="4u6YXKjej-e5rv4cVSY1-21" target="4u6YXKjej-e5rv4cVSY1-24">
          <mxGeometry width="50" height="50" relative="1" as="geometry">
            <mxPoint x="610" y="440" as="sourcePoint" />
            <mxPoint x="660" y="390" as="targetPoint" />
          </mxGeometry>
        </mxCell>
        <mxCell id="4u6YXKjej-e5rv4cVSY1-77" value="" style="endArrow=none;html=1;rounded=0;exitX=1;exitY=0.5;exitDx=0;exitDy=0;entryX=0;entryY=1;entryDx=0;entryDy=0;" edge="1" parent="1" source="4u6YXKjej-e5rv4cVSY1-24" target="4u6YXKjej-e5rv4cVSY1-27">
          <mxGeometry width="50" height="50" relative="1" as="geometry">
            <mxPoint x="610" y="360" as="sourcePoint" />
            <mxPoint x="660" y="310" as="targetPoint" />
          </mxGeometry>
        </mxCell>
        <mxCell id="4u6YXKjej-e5rv4cVSY1-79" value="" style="endArrow=none;html=1;rounded=0;entryX=0.5;entryY=1;entryDx=0;entryDy=0;exitX=1;exitY=0.5;exitDx=0;exitDy=0;" edge="1" parent="1" source="4u6YXKjej-e5rv4cVSY1-27" target="4u6YXKjej-e5rv4cVSY1-11">
          <mxGeometry width="50" height="50" relative="1" as="geometry">
            <mxPoint x="610" y="360" as="sourcePoint" />
            <mxPoint x="660" y="310" as="targetPoint" />
          </mxGeometry>
        </mxCell>
        <mxCell id="4u6YXKjej-e5rv4cVSY1-80" value="" style="endArrow=none;html=1;rounded=0;entryX=0;entryY=0.5;entryDx=0;entryDy=0;" edge="1" parent="1" target="4u6YXKjej-e5rv4cVSY1-20">
          <mxGeometry width="50" height="50" relative="1" as="geometry">
            <mxPoint x="900" y="310" as="sourcePoint" />
            <mxPoint x="660" y="310" as="targetPoint" />
          </mxGeometry>
        </mxCell>
        <mxCell id="4u6YXKjej-e5rv4cVSY1-81" value="" style="endArrow=none;html=1;rounded=0;exitX=0.5;exitY=0;exitDx=0;exitDy=0;entryX=0.429;entryY=0.956;entryDx=0;entryDy=0;entryPerimeter=0;" edge="1" parent="1" source="4u6YXKjej-e5rv4cVSY1-24" target="4u6YXKjej-e5rv4cVSY1-5">
          <mxGeometry width="50" height="50" relative="1" as="geometry">
            <mxPoint x="710" y="330" as="sourcePoint" />
            <mxPoint x="760" y="280" as="targetPoint" />
          </mxGeometry>
        </mxCell>
        <mxCell id="4u6YXKjej-e5rv4cVSY1-83" value="" style="endArrow=none;dashed=1;html=1;rounded=0;exitX=0.979;exitY=0.361;exitDx=0;exitDy=0;exitPerimeter=0;entryX=0;entryY=1;entryDx=0;entryDy=0;" edge="1" parent="1" source="4u6YXKjej-e5rv4cVSY1-8" target="4u6YXKjej-e5rv4cVSY1-16">
          <mxGeometry width="50" height="50" relative="1" as="geometry">
            <mxPoint x="710" y="330" as="sourcePoint" />
            <mxPoint x="740" y="450" as="targetPoint" />
          </mxGeometry>
        </mxCell>
        <mxCell id="4u6YXKjej-e5rv4cVSY1-85" value="" style="endArrow=none;dashed=1;html=1;rounded=0;entryX=0;entryY=1;entryDx=0;entryDy=0;exitX=0.5;exitY=0;exitDx=0;exitDy=0;" edge="1" parent="1" source="4u6YXKjej-e5rv4cVSY1-16" target="4u6YXKjej-e5rv4cVSY1-27">
          <mxGeometry width="50" height="50" relative="1" as="geometry">
            <mxPoint x="710" y="330" as="sourcePoint" />
            <mxPoint x="760" y="280" as="targetPoint" />
          </mxGeometry>
        </mxCell>
        <mxCell id="4u6YXKjej-e5rv4cVSY1-88" value="" style="endArrow=none;dashed=1;html=1;rounded=0;entryX=0.5;entryY=1;entryDx=0;entryDy=0;exitX=0.5;exitY=0;exitDx=0;exitDy=0;" edge="1" parent="1" source="4u6YXKjej-e5rv4cVSY1-3" target="4u6YXKjej-e5rv4cVSY1-14">
          <mxGeometry width="50" height="50" relative="1" as="geometry">
            <mxPoint x="710" y="330" as="sourcePoint" />
            <mxPoint x="760" y="280" as="targetPoint" />
          </mxGeometry>
        </mxCell>
        <mxCell id="4u6YXKjej-e5rv4cVSY1-90" value="" style="endArrow=none;dashed=1;html=1;rounded=0;entryX=0;entryY=0.5;entryDx=0;entryDy=0;exitX=1;exitY=0.5;exitDx=0;exitDy=0;" edge="1" parent="1" source="4u6YXKjej-e5rv4cVSY1-21" target="4u6YXKjej-e5rv4cVSY1-8">
          <mxGeometry width="50" height="50" relative="1" as="geometry">
            <mxPoint x="710" y="330" as="sourcePoint" />
            <mxPoint x="760" y="280" as="targetPoint" />
          </mxGeometry>
        </mxCell>
        <mxCell id="4u6YXKjej-e5rv4cVSY1-93" value="" style="endArrow=none;dashed=1;html=1;rounded=0;entryX=0;entryY=0.5;entryDx=0;entryDy=0;exitX=1;exitY=0.5;exitDx=0;exitDy=0;" edge="1" parent="1" source="4u6YXKjej-e5rv4cVSY1-22" target="4u6YXKjej-e5rv4cVSY1-11">
          <mxGeometry width="50" height="50" relative="1" as="geometry">
            <mxPoint x="710" y="330" as="sourcePoint" />
            <mxPoint x="760" y="280" as="targetPoint" />
          </mxGeometry>
        </mxCell>
        <mxCell id="4u6YXKjej-e5rv4cVSY1-94" value="" style="endArrow=none;dashed=1;html=1;rounded=0;entryX=0;entryY=0.5;entryDx=0;entryDy=0;exitX=1;exitY=0;exitDx=0;exitDy=0;" edge="1" parent="1" source="4u6YXKjej-e5rv4cVSY1-12" target="4u6YXKjej-e5rv4cVSY1-22">
          <mxGeometry width="50" height="50" relative="1" as="geometry">
            <mxPoint x="710" y="330" as="sourcePoint" />
            <mxPoint x="760" y="280" as="targetPoint" />
          </mxGeometry>
        </mxCell>
        <mxCell id="4u6YXKjej-e5rv4cVSY1-61" value="laundry" style="ellipse;whiteSpace=wrap;html=1;" vertex="1" parent="1">
          <mxGeometry x="540" y="330" width="80" height="60" as="geometry" />
        </mxCell>
        <mxCell id="4u6YXKjej-e5rv4cVSY1-95" value="" style="endArrow=none;html=1;rounded=0;exitX=1;exitY=0.5;exitDx=0;exitDy=0;entryX=0;entryY=0.5;entryDx=0;entryDy=0;" edge="1" parent="1" source="4u6YXKjej-e5rv4cVSY1-24" target="4u6YXKjej-e5rv4cVSY1-61">
          <mxGeometry width="50" height="50" relative="1" as="geometry">
            <mxPoint x="450.00000000000546" y="275" as="sourcePoint" />
            <mxPoint x="650.0000000000105" y="300" as="targetPoint" />
          </mxGeometry>
        </mxCell>
        <mxCell id="4u6YXKjej-e5rv4cVSY1-22" value="co working" style="ellipse;whiteSpace=wrap;html=1;" vertex="1" parent="1">
          <mxGeometry x="750" y="130" width="80" height="60" as="geometry" />
        </mxCell>
        <mxCell id="4u6YXKjej-e5rv4cVSY1-97" value="" style="endArrow=none;html=1;rounded=0;entryX=0;entryY=0.5;entryDx=0;entryDy=0;exitX=0.5;exitY=0;exitDx=0;exitDy=0;" edge="1" parent="1" source="4u6YXKjej-e5rv4cVSY1-21" target="4u6YXKjej-e5rv4cVSY1-12">
          <mxGeometry width="50" height="50" relative="1" as="geometry">
            <mxPoint x="380" y="455" as="sourcePoint" />
            <mxPoint x="739.99999999999" y="169.99999999999977" as="targetPoint" />
          </mxGeometry>
        </mxCell>
        <mxCell id="4u6YXKjej-e5rv4cVSY1-101" value="" style="endArrow=none;dashed=1;html=1;rounded=0;exitX=0.5;exitY=0;exitDx=0;exitDy=0;entryX=0.374;entryY=1.032;entryDx=0;entryDy=0;entryPerimeter=0;" edge="1" parent="1" source="4u6YXKjej-e5rv4cVSY1-10" target="4u6YXKjej-e5rv4cVSY1-5">
          <mxGeometry width="50" height="50" relative="1" as="geometry">
            <mxPoint x="410" y="240" as="sourcePoint" />
            <mxPoint x="460" y="190" as="targetPoint" />
          </mxGeometry>
        </mxCell>
        <mxCell id="4u6YXKjej-e5rv4cVSY1-12" value="library" style="ellipse;whiteSpace=wrap;html=1;" vertex="1" parent="1">
          <mxGeometry x="580" y="210" width="80" height="60" as="geometry" />
        </mxCell>
        <mxCell id="4u6YXKjej-e5rv4cVSY1-102" value="" style="endArrow=none;html=1;rounded=0;entryX=0.5;entryY=1;entryDx=0;entryDy=0;exitX=0.5;exitY=0;exitDx=0;exitDy=0;" edge="1" parent="1" source="4u6YXKjej-e5rv4cVSY1-61" target="4u6YXKjej-e5rv4cVSY1-12">
          <mxGeometry width="50" height="50" relative="1" as="geometry">
            <mxPoint x="580" y="330" as="sourcePoint" />
            <mxPoint x="660" y="120" as="targetPoint" />
          </mxGeometry>
        </mxCell>
        <mxCell id="4u6YXKjej-e5rv4cVSY1-165" style="edgeStyle=orthogonalEdgeStyle;rounded=0;orthogonalLoop=1;jettySize=auto;html=1;" edge="1" parent="1" source="4u6YXKjej-e5rv4cVSY1-103">
          <mxGeometry relative="1" as="geometry">
            <mxPoint x="1510" y="600" as="targetPoint" />
          </mxGeometry>
        </mxCell>
        <mxCell id="4u6YXKjej-e5rv4cVSY1-103" value="arcade" style="ellipse;whiteSpace=wrap;html=1;" vertex="1" parent="1">
          <mxGeometry x="1380" y="710" width="80" height="60" as="geometry" />
        </mxCell>
        <mxCell id="4u6YXKjej-e5rv4cVSY1-104" value="grocery store" style="ellipse;whiteSpace=wrap;html=1;" vertex="1" parent="1">
          <mxGeometry x="2310" y="365" width="80" height="60" as="geometry" />
        </mxCell>
        <mxCell id="4u6YXKjej-e5rv4cVSY1-184" style="edgeStyle=orthogonalEdgeStyle;rounded=0;orthogonalLoop=1;jettySize=auto;html=1;entryX=0.5;entryY=1;entryDx=0;entryDy=0;" edge="1" parent="1" source="4u6YXKjej-e5rv4cVSY1-105" target="4u6YXKjej-e5rv4cVSY1-110">
          <mxGeometry relative="1" as="geometry" />
        </mxCell>
        <mxCell id="4u6YXKjej-e5rv4cVSY1-185" style="edgeStyle=orthogonalEdgeStyle;rounded=0;orthogonalLoop=1;jettySize=auto;html=1;" edge="1" parent="1" source="4u6YXKjej-e5rv4cVSY1-105" target="4u6YXKjej-e5rv4cVSY1-120">
          <mxGeometry relative="1" as="geometry" />
        </mxCell>
        <mxCell id="4u6YXKjej-e5rv4cVSY1-105" value="workshop" style="ellipse;whiteSpace=wrap;html=1;" vertex="1" parent="1">
          <mxGeometry x="1420" y="425" width="80" height="60" as="geometry" />
        </mxCell>
        <mxCell id="4u6YXKjej-e5rv4cVSY1-106" value="restaurant" style="ellipse;whiteSpace=wrap;html=1;" vertex="1" parent="1">
          <mxGeometry x="2310" y="435" width="80" height="60" as="geometry" />
        </mxCell>
        <mxCell id="4u6YXKjej-e5rv4cVSY1-107" value="bike parking" style="ellipse;whiteSpace=wrap;html=1;" vertex="1" parent="1">
          <mxGeometry x="2200" y="755" width="80" height="60" as="geometry" />
        </mxCell>
        <mxCell id="4u6YXKjej-e5rv4cVSY1-182" style="edgeStyle=orthogonalEdgeStyle;rounded=0;orthogonalLoop=1;jettySize=auto;html=1;entryX=0.5;entryY=1;entryDx=0;entryDy=0;" edge="1" parent="1" source="4u6YXKjej-e5rv4cVSY1-108" target="4u6YXKjej-e5rv4cVSY1-149">
          <mxGeometry relative="1" as="geometry" />
        </mxCell>
        <mxCell id="4u6YXKjej-e5rv4cVSY1-173" style="edgeStyle=orthogonalEdgeStyle;rounded=0;orthogonalLoop=1;jettySize=auto;html=1;" edge="1" parent="1" source="4u6YXKjej-e5rv4cVSY1-109" target="4u6YXKjej-e5rv4cVSY1-107">
          <mxGeometry relative="1" as="geometry" />
        </mxCell>
        <mxCell id="4u6YXKjej-e5rv4cVSY1-109" value="car parking" style="ellipse;whiteSpace=wrap;html=1;" vertex="1" parent="1">
          <mxGeometry x="2050" y="755" width="80" height="60" as="geometry" />
        </mxCell>
        <mxCell id="4u6YXKjej-e5rv4cVSY1-186" style="edgeStyle=orthogonalEdgeStyle;rounded=0;orthogonalLoop=1;jettySize=auto;html=1;" edge="1" parent="1" source="4u6YXKjej-e5rv4cVSY1-110" target="4u6YXKjej-e5rv4cVSY1-120">
          <mxGeometry relative="1" as="geometry" />
        </mxCell>
        <mxCell id="4u6YXKjej-e5rv4cVSY1-110" value="fab labs" style="ellipse;whiteSpace=wrap;html=1;" vertex="1" parent="1">
          <mxGeometry x="1420" y="320" width="80" height="60" as="geometry" />
        </mxCell>
        <mxCell id="4u6YXKjej-e5rv4cVSY1-111" value="startups" style="ellipse;whiteSpace=wrap;html=1;" vertex="1" parent="1">
          <mxGeometry x="2050" y="375" width="80" height="60" as="geometry" />
        </mxCell>
        <mxCell id="4u6YXKjej-e5rv4cVSY1-163" style="edgeStyle=orthogonalEdgeStyle;rounded=0;orthogonalLoop=1;jettySize=auto;html=1;entryX=0.035;entryY=0.602;entryDx=0;entryDy=0;entryPerimeter=0;" edge="1" parent="1" source="4u6YXKjej-e5rv4cVSY1-112" target="4u6YXKjej-e5rv4cVSY1-120">
          <mxGeometry relative="1" as="geometry" />
        </mxCell>
        <mxCell id="4u6YXKjej-e5rv4cVSY1-164" style="edgeStyle=orthogonalEdgeStyle;rounded=0;orthogonalLoop=1;jettySize=auto;html=1;" edge="1" parent="1" source="4u6YXKjej-e5rv4cVSY1-112" target="4u6YXKjej-e5rv4cVSY1-103">
          <mxGeometry relative="1" as="geometry" />
        </mxCell>
        <mxCell id="4u6YXKjej-e5rv4cVSY1-112" value="cinematheque" style="ellipse;whiteSpace=wrap;html=1;" vertex="1" parent="1">
          <mxGeometry x="1380" y="595" width="80" height="60" as="geometry" />
        </mxCell>
        <mxCell id="4u6YXKjej-e5rv4cVSY1-201" style="edgeStyle=orthogonalEdgeStyle;rounded=0;orthogonalLoop=1;jettySize=auto;html=1;entryX=0;entryY=0.5;entryDx=0;entryDy=0;" edge="1" parent="1" source="4u6YXKjej-e5rv4cVSY1-113" target="4u6YXKjej-e5rv4cVSY1-121">
          <mxGeometry relative="1" as="geometry" />
        </mxCell>
        <mxCell id="4u6YXKjej-e5rv4cVSY1-113" value="drugstore" style="ellipse;whiteSpace=wrap;html=1;" vertex="1" parent="1">
          <mxGeometry x="1890" y="740" width="80" height="60" as="geometry" />
        </mxCell>
        <mxCell id="4u6YXKjej-e5rv4cVSY1-114" value="co cooking&lt;br&gt;starter" style="ellipse;whiteSpace=wrap;html=1;" vertex="1" parent="1">
          <mxGeometry x="1880" y="235" width="80" height="60" as="geometry" />
        </mxCell>
        <mxCell id="4u6YXKjej-e5rv4cVSY1-156" style="edgeStyle=orthogonalEdgeStyle;rounded=0;orthogonalLoop=1;jettySize=auto;html=1;entryX=0.5;entryY=0;entryDx=0;entryDy=0;" edge="1" parent="1" source="4u6YXKjej-e5rv4cVSY1-115" target="4u6YXKjej-e5rv4cVSY1-122">
          <mxGeometry relative="1" as="geometry" />
        </mxCell>
        <mxCell id="4u6YXKjej-e5rv4cVSY1-115" value="Student housing" style="ellipse;whiteSpace=wrap;html=1;" vertex="1" parent="1">
          <mxGeometry x="1770" y="135" width="80" height="60" as="geometry" />
        </mxCell>
        <mxCell id="4u6YXKjej-e5rv4cVSY1-159" style="edgeStyle=orthogonalEdgeStyle;rounded=0;orthogonalLoop=1;jettySize=auto;html=1;entryX=0.5;entryY=0;entryDx=0;entryDy=0;" edge="1" parent="1" source="4u6YXKjej-e5rv4cVSY1-116" target="4u6YXKjej-e5rv4cVSY1-114">
          <mxGeometry relative="1" as="geometry" />
        </mxCell>
        <mxCell id="4u6YXKjej-e5rv4cVSY1-116" value="starter housing" style="ellipse;whiteSpace=wrap;html=1;" vertex="1" parent="1">
          <mxGeometry x="1880" y="135" width="80" height="60" as="geometry" />
        </mxCell>
        <mxCell id="4u6YXKjej-e5rv4cVSY1-174" style="edgeStyle=orthogonalEdgeStyle;rounded=0;orthogonalLoop=1;jettySize=auto;html=1;" edge="1" parent="1" source="4u6YXKjej-e5rv4cVSY1-117" target="4u6YXKjej-e5rv4cVSY1-121">
          <mxGeometry relative="1" as="geometry" />
        </mxCell>
        <mxCell id="4u6YXKjej-e5rv4cVSY1-117" value="gym" style="ellipse;whiteSpace=wrap;html=1;" vertex="1" parent="1">
          <mxGeometry x="2330" y="595" width="80" height="60" as="geometry" />
        </mxCell>
        <mxCell id="4u6YXKjej-e5rv4cVSY1-168" style="edgeStyle=orthogonalEdgeStyle;rounded=0;orthogonalLoop=1;jettySize=auto;html=1;entryX=0;entryY=0.5;entryDx=0;entryDy=0;" edge="1" parent="1" source="4u6YXKjej-e5rv4cVSY1-118" target="4u6YXKjej-e5rv4cVSY1-108">
          <mxGeometry relative="1" as="geometry" />
        </mxCell>
        <mxCell id="4u6YXKjej-e5rv4cVSY1-189" style="edgeStyle=orthogonalEdgeStyle;rounded=0;orthogonalLoop=1;jettySize=auto;html=1;" edge="1" parent="1" source="4u6YXKjej-e5rv4cVSY1-118" target="4u6YXKjej-e5rv4cVSY1-120">
          <mxGeometry relative="1" as="geometry" />
        </mxCell>
        <mxCell id="4u6YXKjej-e5rv4cVSY1-118" value="communal&lt;br&gt;garden" style="ellipse;whiteSpace=wrap;html=1;" vertex="1" parent="1">
          <mxGeometry x="1520" y="740" width="80" height="60" as="geometry" />
        </mxCell>
        <mxCell id="4u6YXKjej-e5rv4cVSY1-119" value="shops" style="ellipse;whiteSpace=wrap;html=1;" vertex="1" parent="1">
          <mxGeometry x="2310" y="285" width="80" height="60" as="geometry" />
        </mxCell>
        <mxCell id="4u6YXKjej-e5rv4cVSY1-180" style="edgeStyle=orthogonalEdgeStyle;rounded=0;orthogonalLoop=1;jettySize=auto;html=1;" edge="1" parent="1" source="4u6YXKjej-e5rv4cVSY1-120" target="4u6YXKjej-e5rv4cVSY1-122">
          <mxGeometry relative="1" as="geometry" />
        </mxCell>
        <mxCell id="4u6YXKjej-e5rv4cVSY1-183" style="edgeStyle=orthogonalEdgeStyle;rounded=0;orthogonalLoop=1;jettySize=auto;html=1;entryX=0;entryY=0.5;entryDx=0;entryDy=0;" edge="1" parent="1" source="4u6YXKjej-e5rv4cVSY1-120" target="4u6YXKjej-e5rv4cVSY1-154">
          <mxGeometry relative="1" as="geometry" />
        </mxCell>
        <mxCell id="4u6YXKjej-e5rv4cVSY1-202" style="edgeStyle=orthogonalEdgeStyle;rounded=0;orthogonalLoop=1;jettySize=auto;html=1;" edge="1" parent="1" source="4u6YXKjej-e5rv4cVSY1-120" target="4u6YXKjej-e5rv4cVSY1-121">
          <mxGeometry relative="1" as="geometry" />
        </mxCell>
        <mxCell id="4u6YXKjej-e5rv4cVSY1-203" style="edgeStyle=orthogonalEdgeStyle;rounded=0;orthogonalLoop=1;jettySize=auto;html=1;" edge="1" parent="1" source="4u6YXKjej-e5rv4cVSY1-120" target="4u6YXKjej-e5rv4cVSY1-114">
          <mxGeometry relative="1" as="geometry" />
        </mxCell>
        <mxCell id="4u6YXKjej-e5rv4cVSY1-120" value="Community&amp;nbsp;&lt;br&gt;Center" style="ellipse;whiteSpace=wrap;html=1;" vertex="1" parent="1">
          <mxGeometry x="1560" y="505" width="120" height="90" as="geometry" />
        </mxCell>
        <mxCell id="4u6YXKjej-e5rv4cVSY1-171" style="edgeStyle=orthogonalEdgeStyle;rounded=0;orthogonalLoop=1;jettySize=auto;html=1;" edge="1" parent="1" source="4u6YXKjej-e5rv4cVSY1-121" target="4u6YXKjej-e5rv4cVSY1-109">
          <mxGeometry relative="1" as="geometry" />
        </mxCell>
        <mxCell id="4u6YXKjej-e5rv4cVSY1-193" style="edgeStyle=orthogonalEdgeStyle;rounded=0;orthogonalLoop=1;jettySize=auto;html=1;" edge="1" parent="1" source="4u6YXKjej-e5rv4cVSY1-121" target="4u6YXKjej-e5rv4cVSY1-107">
          <mxGeometry relative="1" as="geometry" />
        </mxCell>
        <mxCell id="4u6YXKjej-e5rv4cVSY1-195" style="edgeStyle=orthogonalEdgeStyle;rounded=0;orthogonalLoop=1;jettySize=auto;html=1;" edge="1" parent="1" source="4u6YXKjej-e5rv4cVSY1-121" target="4u6YXKjej-e5rv4cVSY1-111">
          <mxGeometry relative="1" as="geometry" />
        </mxCell>
        <mxCell id="4u6YXKjej-e5rv4cVSY1-204" style="edgeStyle=orthogonalEdgeStyle;rounded=0;orthogonalLoop=1;jettySize=auto;html=1;entryX=0;entryY=0.5;entryDx=0;entryDy=0;" edge="1" parent="1" source="4u6YXKjej-e5rv4cVSY1-121" target="4u6YXKjej-e5rv4cVSY1-106">
          <mxGeometry relative="1" as="geometry" />
        </mxCell>
        <mxCell id="4u6YXKjej-e5rv4cVSY1-205" style="edgeStyle=orthogonalEdgeStyle;rounded=0;orthogonalLoop=1;jettySize=auto;html=1;entryX=0;entryY=0.5;entryDx=0;entryDy=0;" edge="1" parent="1" source="4u6YXKjej-e5rv4cVSY1-121" target="4u6YXKjej-e5rv4cVSY1-104">
          <mxGeometry relative="1" as="geometry" />
        </mxCell>
        <mxCell id="4u6YXKjej-e5rv4cVSY1-206" style="edgeStyle=orthogonalEdgeStyle;rounded=0;orthogonalLoop=1;jettySize=auto;html=1;entryX=0;entryY=0.5;entryDx=0;entryDy=0;" edge="1" parent="1" source="4u6YXKjej-e5rv4cVSY1-121" target="4u6YXKjej-e5rv4cVSY1-119">
          <mxGeometry relative="1" as="geometry" />
        </mxCell>
        <mxCell id="4u6YXKjej-e5rv4cVSY1-121" value="Lobby" style="ellipse;whiteSpace=wrap;html=1;" vertex="1" parent="1">
          <mxGeometry x="2030" y="505" width="120" height="90" as="geometry" />
        </mxCell>
        <mxCell id="4u6YXKjej-e5rv4cVSY1-122" value="co cooking&lt;br&gt;student" style="ellipse;whiteSpace=wrap;html=1;" vertex="1" parent="1">
          <mxGeometry x="1770" y="235" width="80" height="60" as="geometry" />
        </mxCell>
        <mxCell id="4u6YXKjej-e5rv4cVSY1-197" style="edgeStyle=orthogonalEdgeStyle;rounded=0;orthogonalLoop=1;jettySize=auto;html=1;" edge="1" parent="1" source="4u6YXKjej-e5rv4cVSY1-149" target="4u6YXKjej-e5rv4cVSY1-122">
          <mxGeometry relative="1" as="geometry" />
        </mxCell>
        <mxCell id="4u6YXKjej-e5rv4cVSY1-198" style="edgeStyle=orthogonalEdgeStyle;rounded=0;orthogonalLoop=1;jettySize=auto;html=1;" edge="1" parent="1" source="4u6YXKjej-e5rv4cVSY1-149" target="4u6YXKjej-e5rv4cVSY1-114">
          <mxGeometry relative="1" as="geometry" />
        </mxCell>
        <mxCell id="4u6YXKjej-e5rv4cVSY1-149" value="laundry" style="ellipse;whiteSpace=wrap;html=1;" vertex="1" parent="1">
          <mxGeometry x="1770" y="595" width="80" height="60" as="geometry" />
        </mxCell>
        <mxCell id="4u6YXKjej-e5rv4cVSY1-177" style="edgeStyle=orthogonalEdgeStyle;rounded=0;orthogonalLoop=1;jettySize=auto;html=1;entryX=0;entryY=0.5;entryDx=0;entryDy=0;" edge="1" parent="1" source="4u6YXKjej-e5rv4cVSY1-154" target="4u6YXKjej-e5rv4cVSY1-151">
          <mxGeometry relative="1" as="geometry" />
        </mxCell>
        <mxCell id="4u6YXKjej-e5rv4cVSY1-178" style="edgeStyle=orthogonalEdgeStyle;rounded=0;orthogonalLoop=1;jettySize=auto;html=1;startArrow=none;" edge="1" parent="1" source="4u6YXKjej-e5rv4cVSY1-151" target="4u6YXKjej-e5rv4cVSY1-114">
          <mxGeometry relative="1" as="geometry" />
        </mxCell>
        <mxCell id="4u6YXKjej-e5rv4cVSY1-154" value="library" style="ellipse;whiteSpace=wrap;html=1;" vertex="1" parent="1">
          <mxGeometry x="1720" y="375" width="80" height="60" as="geometry" />
        </mxCell>
        <mxCell id="4u6YXKjej-e5rv4cVSY1-188" style="edgeStyle=orthogonalEdgeStyle;rounded=0;orthogonalLoop=1;jettySize=auto;html=1;" edge="1" parent="1" source="4u6YXKjej-e5rv4cVSY1-108" target="4u6YXKjej-e5rv4cVSY1-120">
          <mxGeometry relative="1" as="geometry" />
        </mxCell>
        <mxCell id="4u6YXKjej-e5rv4cVSY1-190" style="edgeStyle=orthogonalEdgeStyle;rounded=0;orthogonalLoop=1;jettySize=auto;html=1;" edge="1" parent="1" source="4u6YXKjej-e5rv4cVSY1-108" target="4u6YXKjej-e5rv4cVSY1-113">
          <mxGeometry relative="1" as="geometry" />
        </mxCell>
        <mxCell id="4u6YXKjej-e5rv4cVSY1-200" style="edgeStyle=orthogonalEdgeStyle;rounded=0;orthogonalLoop=1;jettySize=auto;html=1;" edge="1" parent="1" source="4u6YXKjej-e5rv4cVSY1-108" target="4u6YXKjej-e5rv4cVSY1-199">
          <mxGeometry relative="1" as="geometry" />
        </mxCell>
        <mxCell id="4u6YXKjej-e5rv4cVSY1-108" value="co cooking" style="ellipse;whiteSpace=wrap;html=1;" vertex="1" parent="1">
          <mxGeometry x="1770" y="740" width="80" height="60" as="geometry" />
        </mxCell>
        <mxCell id="4u6YXKjej-e5rv4cVSY1-187" value="" style="edgeStyle=orthogonalEdgeStyle;rounded=0;orthogonalLoop=1;jettySize=auto;html=1;endArrow=none;" edge="1" parent="1" source="4u6YXKjej-e5rv4cVSY1-118" target="4u6YXKjej-e5rv4cVSY1-108">
          <mxGeometry relative="1" as="geometry">
            <mxPoint x="1850" y="550" as="targetPoint" />
            <mxPoint x="1650" y="770" as="sourcePoint" />
          </mxGeometry>
        </mxCell>
        <mxCell id="4u6YXKjej-e5rv4cVSY1-196" style="edgeStyle=orthogonalEdgeStyle;rounded=0;orthogonalLoop=1;jettySize=auto;html=1;" edge="1" parent="1" source="4u6YXKjej-e5rv4cVSY1-151" target="4u6YXKjej-e5rv4cVSY1-111">
          <mxGeometry relative="1" as="geometry" />
        </mxCell>
        <mxCell id="4u6YXKjej-e5rv4cVSY1-151" value="co working" style="ellipse;whiteSpace=wrap;html=1;" vertex="1" parent="1">
          <mxGeometry x="1880" y="375" width="80" height="60" as="geometry" />
        </mxCell>
        <mxCell id="4u6YXKjej-e5rv4cVSY1-194" value="" style="edgeStyle=orthogonalEdgeStyle;rounded=0;orthogonalLoop=1;jettySize=auto;html=1;endArrow=none;" edge="1" parent="1" source="4u6YXKjej-e5rv4cVSY1-154" target="4u6YXKjej-e5rv4cVSY1-151">
          <mxGeometry relative="1" as="geometry">
            <mxPoint x="1840" y="480" as="sourcePoint" />
            <mxPoint x="1920" y="295" as="targetPoint" />
          </mxGeometry>
        </mxCell>
        <mxCell id="4u6YXKjej-e5rv4cVSY1-199" value="Assisted living" style="ellipse;whiteSpace=wrap;html=1;" vertex="1" parent="1">
          <mxGeometry x="1770" y="840" width="80" height="60" as="geometry" />
        </mxCell>
      </root>
    </mxGraphModel>
  </diagram>
</mxfile>
